<svg xmlns="http://www.w3.org/2000/svg" id="giant-panda-head" version="1.1" viewBox="0 0 810 657"><defs><style>.cls-1{fill:#000}.cls-1,.cls-2,.cls-3{stroke-width:0}.cls-2{fill:#6366f1}.cls-3{fill:#fff}</style></defs><g id="ears"><g id="ear-left"><circle id="ear-outer" cx="135" cy="135.1" r="135" class="cls-1"/></g><g id="ear-right"><circle id="ear-outer-2" cx="675" cy="135.1" r="135" class="cls-1"/></g></g><g id="head-main"><path d="M405 650.8c-19.7 0-39.7-.9-59.3-2.8-99.8-9.5-183.1-35.7-240.9-75.8C39.2 526.8 6 464.2 6 386.5s40-197 112.8-267.9C193 46.3 294.6 6.5 405 6.5s212 39.8 286.2 112.1c72.7 70.9 112.8 166 112.8 267.9s-33.2 140.3-98.8 185.8c-57.8 40.1-141.1 66.3-240.9 75.8-19.6 1.9-39.6 2.8-59.3 2.8Z" class="cls-3"/><path d="M405 12.5c55.6 0 108.6 10 157.7 29.8 47 18.9 88.8 46 124.3 80.7 35.1 34.2 62.5 74.2 81.6 118.9 19.5 45.7 29.3 94.3 29.3 144.7 0 75.7-32.4 136.6-96.2 180.9-29.2 20.3-65 37-106.4 49.7-39.3 12.1-83.6 20.5-131.6 25-19.4 1.8-39.2 2.8-58.7 2.8s-39.3-.9-58.7-2.8c-48-4.5-92.3-13-131.6-25-41.4-12.7-77.2-29.4-106.4-49.7-63.8-44.3-96.2-105.2-96.2-180.9s9.9-99 29.3-144.7C60.5 197.2 87.9 157.2 123 123c35.6-34.6 77.4-61.8 124.3-80.7C296.4 22.5 349.4 12.5 405 12.5m0-12C170.6.5 0 175.3 0 386.5c0 169.8 155.3 249.6 345.1 267.6 19.9 1.9 39.9 2.8 59.9 2.8s39.9-.9 59.9-2.8c189.9-18 345.1-97.7 345.1-267.6C810 175.3 639.4.5 405 .5" class="cls-1"/></g><g id="face"><g id="eyespots"><ellipse id="eyespot-left" cx="196.8" cy="448" class="cls-1" rx="125.7" ry="100.8" transform="rotate(-47.7 196.859 448.021)"/><ellipse id="eyespot-right" cx="613" cy="447" class="cls-1" rx="100.8" ry="125.7" transform="rotate(-42.3 613.04 447.12)"/></g><g id="eyes-and-shine"><g id="eyes"><g id="eye-left"><path d="M246.1 479c-21.9 0-39.8-17.8-39.8-39.8s17.8-39.8 39.8-39.8 39.8 17.8 39.8 39.8-17.8 39.8-39.8 39.8" class="cls-2"/><path d="M246.1 405.5c18.6 0 33.8 15.1 33.8 33.8s-15.1 33.8-33.8 33.8-33.8-15.1-33.8-33.8 15.1-33.8 33.8-33.8m0-12c-25.2 0-45.8 20.5-45.8 45.8s20.5 45.8 45.8 45.8 45.8-20.5 45.8-45.8-20.5-45.8-45.8-45.8" class="cls-1"/></g><g id="eye-right"><path d="M563.9 479c-21.9 0-39.8-17.8-39.8-39.8s17.8-39.8 39.8-39.8 39.8 17.8 39.8 39.8-17.8 39.8-39.8 39.8" class="cls-2"/><path d="M563.9 405.5c18.6 0 33.8 15.1 33.8 33.8s-15.1 33.8-33.8 33.8-33.8-15.1-33.8-33.8 15.1-33.8 33.8-33.8m0-12c-25.2 0-45.8 20.5-45.8 45.8s20.5 45.8 45.8 45.8 45.8-20.5 45.8-45.8-20.5-45.8-45.8-45.8" class="cls-1"/></g></g><g id="eyeshine"><circle id="eyeshine-left" cx="231.2" cy="426.1" r="9.6" class="cls-3"/><circle id="eyeshine-right" cx="550" cy="426.1" r="9.6" class="cls-3"/></g></g><ellipse id="nose" cx="405" cy="540.1" class="cls-1" rx="38.7" ry="21.3"/><path id="mouth" d="M472.5 585.3 405 612l-67.5-26.7" style="fill:none;stroke:#000;stroke-linecap:round;stroke-linejoin:round;stroke-width:12px"/></g></svg>